<?xml version="1.0" standalone="no"?>
<!DOCTYPE svg PUBLIC "-//W3C//DTD SVG 20010904//EN"
 "http://www.w3.org/TR/2001/REC-SVG-20010904/DTD/svg10.dtd">
<svg version="1.0" xmlns="http://www.w3.org/2000/svg"
 width="53.000000pt" height="48.000000pt" viewBox="0 0 53.000000 48.000000"
 preserveAspectRatio="xMidYMid meet">
<metadata>
Created by potrace 1.15, written by Peter Selinger 2001-2017
</metadata>
<g transform="translate(0.000000,48.000000) scale(0.100000,-0.100000)"
fill="#000000" stroke="none">
<path d="M40 275 c0 -122 2 -135 18 -134 10 0 12 3 5 6 -10 3 -13 39 -13 129
l0 124 130 0 130 0 2 -102 c2 -89 2 -93 5 -30 l4 72 34 0 35 0 0 -50 0 -50 40
0 40 0 0 -44 c0 -26 -5 -46 -13 -49 -7 -3 -5 -6 6 -6 15 -1 17 10 17 104 l0
105 -80 0 -80 0 0 30 0 30 -140 0 -140 0 0 -135z"/>
</g>
</svg>
